# xmcd
#
# Track frame offsets:
#	150
#	18715
#	38775
#	54399
#	74103
#	91132
#	111128
#	129751
#	152013
#	171957
#	186037
#	199967
#
# Disc length: 2879 seconds
#
# Revision: 2
# Processed by: cddbd v1.5.2PL0 Copyright (c) Steve Scherf et al.
# Submitted via: EasyCDDAExtractor 15.3.0.1
#
DISCID=a20b3d0c
DTITLE=Fey - La Fuerza Del Destino
DYEAR=2004
DGENRE=Latin
TTITLE0=Mujer Contra Mujer
TTITLE1=Aire
TTITLE2=Barco A Venus
TTITLE3=Hoy No Me Puedo Levantar
TTITLE4=Me Cole En Una Fiesta
TTITLE5=Cruz De Navajas
TTITLE6=Un Año Mas
TTITLE7=La Fuerza Del Destino
TTITLE8=Ay Que Pesado
TTITLE9=Los Amantes
TTITLE10=Me Cuesta Tanto Olvidarte
TTITLE11=Busca Algo Barato
EXTD=
EXTT0=
EXTT1=
EXTT2=
EXTT3=
EXTT4=
EXTT5=
EXTT6=
EXTT7=
EXTT8=
EXTT9=
EXTT10=
EXTT11=
PLAYORDER=
